#!OML:ASF H:\ColoradoDance\Project 1\Capture day 1\Session 8\male.ASF
:FULLY-SPECIFIED
:DEGREES
61
upperback -2.142730 -4.770910 -0.665567
rfoot -3.173830 -18.940500
lradius 25.057899
lthumb 4.086820 60.021999
rradius 17.707199
lwrist -12.170800
rhand -19.273100 -5.329060
rhumerus -65.105003 -20.671101 -58.616901
lowerneck -8.316120 -2.901810 1.680830
lhand -22.333401 30.081499
ltibia -0.000000
head 3.111460 -1.984520 -0.672724
rwrist 18.417700
lfingers 7.125020
rtoes 6.018290
lowerback 1.003810 -3.527580 -4.061000
rfingers 7.125020
lclavicle 0.000000 -0.000000
upperneck 5.283300 -4.031660 -0.518508
rfemur -64.241402 -21.200600 25.641399
thorax -2.492000 -2.283910 1.718980
rclavicle 0.000000 -0.000000
rtibia 45.744900
lfoot -16.551300 12.386000
lhumerus -40.195900 14.754600 60.875500
rthumb 7.041530 -395.191986
root -26.073500 17.422899 21.414700 908.268982 21.476801 173.651001
ltoes -23.833200
lfemur 26.477900 -4.573010 -15.970200
62
upperback -4.027480 -2.744410 1.791690
rfoot -10.449900 -14.793500
lradius 18.771601
lthumb 5.268030 56.420898
rradius 34.064999
lwrist -21.352699
rhand -34.291599 -3.941350
rhumerus -50.541698 -8.376730 -68.508102
lowerneck -6.482220 -2.556800 1.774020
lhand -21.110100 26.506399
ltibia 48.473598
head 3.697810 -1.680300 -1.479560
rwrist 8.601310
lfingers 7.125020
rtoes 8.785730
lowerback 1.769370 -2.242660 1.366090
rfingers 7.125020
lclavicle -0.000000 0.000000
upperneck 8.077460 -3.284500 -3.009860
rfemur -56.500099 -19.502501 35.872501
thorax -5.131220 -1.328120 1.255230
rclavicle -0.000000 0.000000
rtibia 56.009899
lfoot -8.332480 10.205300
lhumerus -51.825298 21.326900 51.985901
rthumb -7.461080 -393.790009
root -23.493500 17.784201 19.048800 909.924011 26.112400 181.240997
ltoes -18.411200
lfemur 1.906190 4.291790 -12.335300
63
upperback -2.087800 -1.454630 2.671360
rfoot -11.428500 -19.990000
lradius 24.799101
lthumb 5.900320 58.828499
rradius 32.179199
lwrist -13.742300
rhand -28.217800 -5.711240
rhumerus -50.476101 -7.494910 -64.251999
lowerneck -4.916890 -4.115400 0.468803
lhand -20.455200 28.930599
ltibia 56.166901
head 4.231750 -2.590270 -0.731474
rwrist 13.194100
lfingers 7.125020
rtoes -1.694220
lowerback 3.407700 -1.405640 4.172970
rfingers 7.125020
lclavicle -0.000000 -0.000000
upperneck 10.366700 -5.311170 -1.135180
rfemur -40.828800 -14.950400 36.665100
thorax -4.110180 -0.754197 0.520390
rclavicle -0.000000 -0.000000
rtibia 53.989399
lfoot -26.819300 7.573050
lhumerus -45.452202 15.075100 56.956902
rthumb -1.596300 -395.684998
root -22.189100 18.344601 18.075800 905.525024 25.011900 186.561996
ltoes -3.867200
lfemur -23.260900 4.886900 -22.534599
64
upperback -1.487150 -2.718930 2.092030
rfoot 18.188000 -13.086700
lradius 24.420000
lthumb 4.676810 57.515999
rradius 25.651199
lwrist -14.013400
rhand -27.302000 -6.054110
rhumerus -51.696899 -8.853770 -64.984703
lowerneck -5.201300 -3.596460 0.356486
lhand -21.722401 27.587601
ltibia 39.445900
head 3.888740 -2.294370 0.441458
rwrist 12.017900
lfingers 7.125020
rtoes 31.699600
lowerback 5.069690 -2.147560 0.414811
rfingers 7.125020
lclavicle -0.000000 -0.000000
upperneck 8.935490 -4.968040 2.263640
rfemur -55.850201 -14.265700 29.855200
thorax -4.297070 -1.318480 2.165100
rclavicle -0.000000 -0.000000
rtibia 30.275999
lfoot -20.180401 5.649540
lhumerus -37.997002 10.429200 57.831100
rthumb -0.711794 -396.032990
root -21.949900 19.205000 18.468599 908.049988 23.693399 186.753006
ltoes 11.956600
lfemur -21.006300 10.062000 -22.408400
65
upperback -1.083300 -1.970020 2.758050
rfoot 31.427299 -23.994101
lradius 25.990601
lthumb 6.162660 56.851700
rradius 22.553200
lwrist -12.473300
rhand -25.074900 -1.749170
rhumerus -45.820000 -5.644680 -59.832401
lowerneck -3.776060 -3.297530 1.086560
lhand -20.183500 26.961300
ltibia 31.267500
head 3.217240 -2.103060 -0.894617
rwrist 16.031700
lfingers 7.125020
rtoes 32.402802
lowerback 5.986490 -1.841430 3.647260
rfingers 7.125020
lclavicle 0.000000 -0.000000
upperneck 8.165670 -4.263370 -1.668550
rfemur -74.404198 -30.412500 31.311501
thorax -4.513380 -0.996643 1.004040
rclavicle 0.000000 -0.000000
rtibia 54.966000
lfoot -16.326500 12.080700
lhumerus -35.767399 7.067080 62.070499
rthumb 1.439220 -391.723999
root -22.415199 19.509501 18.705500 909.028015 25.273001 186.917007
ltoes 15.111500
lfemur -19.269800 5.830210 -23.752100
66
upperback -2.542890 -0.340197 2.628870
rfoot 25.858200 -34.049198
lradius 24.363501
lthumb 4.321490 61.307499
rradius 25.068701
lwrist -12.052000
rhand -28.470100 1.091290
rhumerus -34.806999 2.495340 -62.663601
lowerneck -4.968960 -2.952000 0.752482
lhand -22.090401 31.371599
ltibia 30.935301
head 3.798120 -1.869070 -0.767682
rwrist 9.550600
lfingers 7.125020
rtoes 43.465199
lowerback 4.455930 -0.645006 4.372630
rfingers 7.125020
lclavicle 0.000000 0.000000
upperneck 9.111830 -3.797660 -1.380140
rfemur -52.022099 -40.374298 20.106701
thorax -5.158900 -0.226314 0.303414
rclavicle 0.000000 0.000000
rtibia 83.506203
lfoot -16.417200 13.560300
lhumerus -42.221500 8.404600 56.268700
rthumb -1.839900 -388.881012
root -22.719900 19.523701 18.996300 911.989014 30.648800 187.425003
ltoes 19.115700
lfemur -23.063299 7.746240 -24.471600
67
upperback -4.179050 3.395480 0.717574
rfoot 21.155899 -31.346600
lradius 22.754101
lthumb 3.523320 60.129799
rradius 26.363701
lwrist -11.257800
rhand -29.330400 -0.096252
rhumerus -22.357500 9.426710 -72.310303
lowerneck -5.604140 -3.240270 -0.029415
lhand -22.916901 30.179100
ltibia 37.998402
head 3.305400 -2.118250 -0.097945
rwrist 9.575040
lfingers 7.125020
rtoes 34.454700
lowerback 3.044310 2.252340 3.973230
rfingers 7.125020
lclavicle -0.000000 -0.000000
upperneck 7.195370 -4.325880 0.290404
rfemur -6.376800 -24.746201 16.771999
thorax -5.868960 1.567240 -1.749490
rclavicle -0.000000 -0.000000
rtibia 56.221298
lfoot -17.109301 11.877800
lhumerus -50.065800 8.838610 50.486599
rthumb -2.670750 -390.058990
root -23.061399 19.232000 19.718300 916.286011 38.484699 187.768997
ltoes 19.556601
lfemur -34.579800 16.046101 -27.398899
68
upperback -5.130250 6.018130 -1.743830
rfoot -14.444200 -6.730940
lradius 22.327299
lthumb 4.643250 62.465900
rradius 32.135101
lwrist -8.850940
rhand -36.410900 -6.343140
rhumerus -9.279140 25.178301 -86.596497
lowerneck -6.369400 -1.629840 -0.054704
lhand -21.757200 32.536800
ltibia 51.216999
head 2.789470 -1.071400 0.315484
rwrist 5.963260
lfingers 7.125020
rtoes -11.554300
lowerback 1.240810 4.359770 2.853700
rfingers 7.125020
lclavicle 0.000000 -0.000000
upperneck 5.228580 -2.249330 1.256240
rfemur 7.516670 -9.200910 23.202400
thorax -5.540140 2.874980 -3.746990
rclavicle 0.000000 -0.000000
rtibia 34.231800
lfoot -17.957199 13.680600
lhumerus -57.008499 10.953100 53.637501
rthumb -9.506230 -396.109009
root -24.165300 18.307699 20.965300 921.291992 51.424801 187.677994
ltoes 19.895300
lfemur -54.979099 23.455999 -35.145699
69
upperback -4.801340 7.244930 -1.683400
rfoot -38.323898 -15.692400
lradius 22.205601
lthumb 7.460080 63.956299
rradius 46.473099
lwrist -16.755600
rhand -28.272600 5.538760
rhumerus -16.329000 38.298100 -102.304001
lowerneck -2.869170 0.446629 4.741000
lhand -18.839500 34.107800
ltibia 61.234100
head 2.938120 0.384440 -1.242710
rwrist -0.654453
lfingers 7.125020
rtoes -14.452400
lowerback 0.841331 5.268500 4.289960
rfingers 7.125020
lclavicle -0.000000 0.000000
upperneck 7.548250 0.518862 -1.348440
rfemur 12.276900 -2.819530 25.721901
thorax -4.708380 3.444870 -4.445200
rclavicle -0.000000 0.000000
rtibia 26.009399
lfoot -12.958800 20.872000
lhumerus -57.591900 12.268200 53.036400
rthumb -1.649200 -384.434998
root -25.633499 17.545000 22.229099 922.685974 61.751499 192.923996
ltoes 12.854200
lfemur -63.219299 23.571899 -29.960600
70
upperback -3.804270 6.901170 -0.293099
rfoot -39.245899 -14.759700
lradius 19.659000
lthumb -6.196450 44.562801
rradius 43.458000
lwrist -18.351601
rhand -32.879002 -0.702801
rhumerus -28.027500 36.390301 -107.438004
lowerneck -2.275640 3.045210 7.590980
lhand -32.981602 14.673500
ltibia 56.446800
head 2.695750 2.130740 -1.373680
rwrist 8.785370
lfingers 7.125020
rtoes -14.583800
lowerback -0.860838 5.074730 4.788810
rfingers 7.125020
lclavicle -0.000000 0.000000
upperneck 6.630870 3.855560 -0.560202
rfemur 14.697900 -0.846535 25.887800
thorax -2.853290 3.344090 -3.040460
rclavicle -0.000000 0.000000
rtibia 25.072001
lfoot 10.485300 4.871010
lhumerus -55.123001 12.197300 42.874199
rthumb -6.097380 -390.595001
root -25.948200 17.291100 22.181801 930.539001 66.997902 204.095993
ltoes 1.068710
lfemur -60.530899 12.292800 -4.898650
71
upperback -4.213460 8.499300 -1.169380
rfoot -30.059200 -14.515600
lradius 18.445900
lthumb 5.000580 57.636002
rradius 29.812201
lwrist -20.042200
rhand -35.690701 -2.023800
rhumerus -27.905500 7.082970 -87.338303
lowerneck -5.787090 4.762440 8.435290
lhand -21.387100 27.715000
ltibia 50.685699
head 2.578360 3.026300 -1.118210
rwrist 10.388700
lfingers 7.125020
rtoes -20.274099
lowerback 0.765695 6.236080 4.193220
rfingers 7.125020
lclavicle 0.000000 0.000000
upperneck 4.100640 5.728940 0.305810
rfemur 22.216000 9.015130 16.465700
thorax -4.009500 4.100640 -3.833320
rclavicle 0.000000 0.000000
rtibia 12.780000
lfoot -5.996560 -15.939100
lhumerus -44.342098 12.315300 42.294201
rthumb -8.811300 -391.820007
root -24.900600 16.896400 19.908300 943.143982 75.777496 213.934006
ltoes -18.621300
lfemur -53.430901 -4.285700 13.088700
72
upperback -3.876410 4.628250 0.860979
rfoot -13.164300 -20.713699
lradius 27.287399
lthumb -0.066904 41.811901
rradius 40.389999
lwrist -12.760600
rhand -46.109001 -51.415699
rhumerus -32.465401 1.367650 -77.099998
lowerneck -4.451210 -1.951590 2.479070
lhand -26.634300 11.832200
ltibia 58.910900
head 0.887441 -1.253140 1.477610
rwrist -1.268220
lfingers 7.125020
rtoes -3.980870
lowerback 3.778530 3.271990 2.359930
rfingers 7.125020
lclavicle 0.000000 -0.000000
upperneck 0.263008 -2.755920 6.281170
rfemur -15.222300 -8.597630 3.419450
thorax -6.031090 2.224660 -0.833843
rclavicle 0.000000 -0.000000
rtibia 45.026299
lfoot -14.529800 -7.404700
lhumerus -35.536999 0.113545 62.328201
rthumb -18.850599 -440.522003
root -24.519199 17.314400 17.516600 1064.390015 71.792000 327.362000
ltoes -18.577000
lfemur -51.837700 15.603200 3.587960
73
upperback -2.760580 -0.412604 -0.528506
rfoot -8.948920 -22.990499
lradius 29.744600
lthumb 4.769110 61.707699
rradius 44.289101
lwrist -9.966140
rhand -12.474800 -55.101200
rhumerus -40.539902 -2.167970 -75.286697
lowerneck -1.349290 -11.364300 -3.734490
lhand -21.626801 31.781401
ltibia 48.394299
head 2.602100 -7.626100 2.718670
rwrist 5.794020
lfingers 7.125020
rtoes -6.083510
lowerback 2.759400 -0.291990 -0.139808
rfingers 7.125020
lclavicle -0.000000 0.000000
upperneck 4.171250 -15.488100 8.041680
rfemur -39.201099 -18.723101 11.130800
thorax -4.395830 -0.207395 -0.440072
rclavicle -0.000000 0.000000
rtibia 56.336700
lfoot -17.143700 16.988600
lhumerus -40.838200 1.462960 58.182800
rthumb 13.599500 -444.636993
root -24.675200 18.157600 17.052900 1087.609985 32.040600 352.970001
ltoes -13.579200
lfemur -26.476500 25.461901 0.352819
